<?xml version="1.0" standalone="no"?>
<!DOCTYPE svg PUBLIC "-//W3C//DTD SVG 20010904//EN"
 "http://www.w3.org/TR/2001/REC-SVG-20010904/DTD/svg10.dtd">
<svg version="1.0" xmlns="http://www.w3.org/2000/svg"
 width="150.000000pt" height="150.000000pt" viewBox="0 0 150.000000 150.000000"
 preserveAspectRatio="xMidYMid meet">
<metadata>
Created by potrace 1.11, written by Peter Selinger 2001-2013
</metadata>
<g transform="translate(0.000000,150.000000) scale(0.100000,-0.100000)"
fill="#000000" stroke="none">
<path d="M200 1340 c0 -5 -9 -10 -20 -10 -13 0 -20 -7 -20 -20 0 -11 -4 -20
-10 -20 -7 0 -10 -190 -10 -550 0 -360 3 -550 10 -550 6 0 10 -9 10 -20 0 -13
7 -20 20 -20 11 0 20 -4 20 -10 0 -7 188 -10 545 -10 l546 0 34 35 35 34 0
541 0 541 -35 34 -34 35 -546 0 c-357 0 -545 -3 -545 -10z m600 -236 c0 -17
-34 -34 -70 -34 -72 0 -70 8 -70 -334 0 -299 0 -306 20 -306 11 0 20 -4 20
-10 0 -6 43 -10 110 -10 67 0 110 4 110 10 0 6 7 10 15 10 18 0 65 44 65 60 0
11 45 60 55 60 3 0 5 -9 5 -20 0 -11 -4 -20 -10 -20 -5 0 -10 -9 -10 -20 0
-11 -4 -20 -10 -20 -5 0 -10 -9 -10 -20 0 -11 -4 -20 -10 -20 -5 0 -10 -7 -10
-16 0 -42 -16 -44 -294 -44 -146 0 -266 3 -266 6 0 16 32 34 60 34 60 0 60 -1
60 324 0 191 -4 296 -10 296 -5 0 -10 9 -10 20 0 16 -7 20 -36 20 -31 0 -64
18 -64 34 0 3 81 6 180 6 99 0 180 -3 180 -6z"/>
</g>
</svg>
